<?xml version="1.0" encoding="UTF-8"?>
<svg width="1200pt" height="1200pt" version="1.1" viewBox="0 0 1200 1200" xmlns="http://www.w3.org/2000/svg">
 <g fill-rule="evenodd">
  <path d="m553.82 302.57c-158.11 0-286.46 128.36-286.46 286.46 0 158.18 128.36 286.7 286.46 286.7 70.512 0 135.2-25.449 185.15-67.777 16.621 40.762 46.719 66.52 78.879 79.113 37.457 14.672 77.117 13.18 105.8-0.71094 1.8164-0.83984 3.6094-2.0664 4.9609-3.543 1.3516-1.4766 2.3984-3.3125 3.0703-5.1953 0.67188-1.8828 1.0508-3.9062 0.94531-5.9062-0.10547-1.9961-0.78125-3.8672-1.6523-5.668-0.87109-1.8008-2.043-3.3984-3.543-4.7227-1.5-1.3242-3.3008-2.4297-5.1953-3.0703s-3.9062-0.85156-5.9023-0.71094c-1.9961 0.14453-3.8828 0.51563-5.668 1.418-19.078 9.2383-52.121 11.59-81.711 0-28.188-11.039-53.805-33.121-66.125-73.684 48.129-51.305 77.695-120.46 77.695-196.25 0-158.1-128.52-286.46-286.7-286.46zm0 92.102c38.688 0 70.375 31.691 70.375 70.375 0 38.688-31.691 70.375-70.375 70.375-38.684 0-70.375-31.691-70.375-70.375 0-38.688 31.691-70.375 70.375-70.375zm-123.98 123.98c5.793 0.054688 11.871 1.0312 17.711 2.5977 37.367 9.9805 59.539 48.805 49.594 86.199-10.055 37.352-48.852 59.555-86.199 49.594-37.336-10.051-59.637-48.828-49.594-86.199 8.4219-31.516 37.168-52.465 68.488-52.191zm246.08 0c38.688 0 70.613 31.664 70.613 70.375s-31.902 70.613-70.613 70.613c-38.711 0-70.141-31.926-70.141-70.613 0-38.684 31.453-70.375 70.141-70.375zm-122.09 127.05c38.711 0 70.375 31.926 70.375 70.613s-31.691 70.375-70.375 70.375c-38.684 0-70.375-31.691-70.375-70.375 0-38.688 31.664-70.613 70.375-70.613z"/>
  <path d="m656.51 567.86c5.3789 0 10.746 2.1016 14.922 6.3047 0.015625 0.023438 0.039062 0.039063 0.054687 0.058594 8.4023 8.3555 8.418 21.465-0.03125 29.91h-0.03125c-8.3555 8.4023-21.465 8.418-29.914 0-1.1016-1.1289-2.3828-2.0859-3.7812-2.8203-1.1953-3.8359-1.8438-7.9297-1.8438-12.188 0-4.2305 0.63672-8.2969 1.8164-12.109 1.4062-0.73438 2.6953-1.6914 3.8047-2.8242 4.2227-4.2227 9.6133-6.332 14.988-6.332z"/>
  <path d="m448.61 572.93c7.1328 0.11719 13.926 3.8984 17.848 10.684 0.77734 1.3828 1.7734 2.6406 2.9414 3.7148 0.16406 4.0156-0.26953 8.1328-1.3633 12.254v0c-1.1016 4.0742-2.7734 7.8242-4.9062 11.188-1.5664 0.34766-3.0742 0.94141-4.4531 1.7578-10.32 5.9688-22.938 2.5703-28.926-7.7852-0.007812-0.007813-0.015625 0-0.015625 0-5.9141-10.188-2.5352-22.895 7.7578-28.875 3.5547-2.043 7.3867-2.9844 11.121-2.9219z"/>
  <path d="m553.91 676.03c4.25 0 8.332 0.64844 12.16 1.8438 0.73828 1.4258 1.7031 2.7305 2.8477 3.8555 8.332 8.332 8.3594 21.508 0 29.941-8.4258 8.3516-21.594 8.3516-30.016 0-8.3594-8.4336-8.332-21.609 0-29.941 1.1484-1.1211 2.1172-2.4297 2.8594-3.8555 3.8242-1.1953 7.9062-1.8398 12.148-1.8398z"/>
  <path d="m553.91 463.19c5.3906 0 10.785 2.1094 15.008 6.332 8.3398 8.3398 8.3594 21.535-0.03125 29.969-1.1172 1.0977-2.0664 2.3672-2.793 3.7539-3.8359 1.1953-7.9258 1.8438-12.188 1.8438-4.2656 0-8.3633-0.64844-12.203-1.8477-0.72656-1.3828-1.6641-2.6523-2.7773-3.7461-8.3867-8.4336-8.3711-21.629-0.03125-29.969 4.2227-4.2227 9.6172-6.332 15.008-6.332z"/>
 </g>
</svg>
